Coordinates
version=1
nRows=19
nColumns=33
inDegrees=yes

Units are S.I. units (second, meters, Newtons, ...)
Angles are in degrees.

endheader
time	ground_thorax_rot_x	ground_thorax_rot_y	ground_thorax_rot_z	ground_thorax_tx	ground_thorax_ty	ground_thorax_tz	clav_prot_r	clav_elev_r	scapula_abduction_r	scapula_elevation_r	scapula_upward_rot_r	scapula_winging_r	shoulder_elv_r	plane_of_elev_r	axial_rot_r	elbow_flexion_r	pro_sup_r	wrist_flex_r	wrist_dev_r	clav_prot_l	clav_elev_l	scapula_abduction_l	scapula_elevation_l	scapula_upward_rot_l	scapula_winging_l	shoulder_elv_l	plane_of_elev_l	axial_rot_l	elbow_flexion_l	pro_sup_l	wrist_flex_l	wrist_dev_l
      2.21000000	      1.43117683	     -0.81716571	     -9.39856666	     -0.06925741	      1.04990802	      0.00231010	    -12.07795119	     -6.56271416	    -11.15269225	     -0.89370266	      7.29067355	     -0.34054460	     60.16461876	    -51.35038965	     70.69970276	     65.26807736	      0.31333751	     32.63498298	     -3.00135412	     -7.91781907	     -4.09218863	      8.13469821	     -4.73910775	     -4.97057444	     -1.67115611	     56.81547898	    -55.08536572	    -48.35313667	     64.98769865	     -0.64103776	    -15.54815527	    -24.99999983
      2.22000000	      1.41608209	     -0.83273411	     -9.37086944	     -0.06902456	      1.04975026	      0.00223821	    -12.07961764	     -6.56718298	    -11.15782049	     -0.89150378	      7.28089038	     -0.34211850	     60.15072658	    -51.35430482	     70.69969551	     65.27954442	      0.31945394	     32.64365270	     -3.00571032	     -7.91786283	     -4.11292481	      8.12865924	     -4.71950538	     -4.97339877	     -1.67032750	     56.79516677	    -55.07013927	    -48.35605998	     65.00060275	     -0.64084277	    -15.54729062	    -24.99999983
      2.23000000	      1.41019776	     -0.83693162	     -9.33024600	     -0.06880408	      1.04974141	      0.00215051	    -12.07851914	     -6.57172543	    -11.15800769	     -0.89828396	      7.27919002	     -0.33280188	     60.13601611	    -51.34695768	     70.69161351	     65.30514727	      0.32746734	     32.66055354	     -3.01378529	     -7.91621102	     -4.13322796	      8.12286831	     -4.70174419	     -4.97100992	     -1.67845521	     56.77508337	    -55.05603511	    -48.35765137	     65.01495709	     -0.63815008	    -15.54906422	    -24.99999983
      2.24000000	      1.62825178	     -0.88876606	     -9.26308149	     -0.06866714	      1.04954470	      0.00215976	    -11.86984337	     -6.23213731	    -11.02726012	     -0.47606891	      6.95446770	     -0.40584295	     60.03654308	    -51.17655584	     69.94882413	     65.07674059	      2.18910955	     34.65649922	     -4.51562523	     -7.72304575	     -4.38683896	      7.52948242	     -4.27376260	     -4.43463383	     -1.53295671	     55.91012580	    -55.88349085	    -47.88942790	     65.00801241	      0.31107236	    -16.29787857	    -24.99999983
      2.25000000	      1.60936948	     -0.89551301	     -9.23695253	     -0.06840096	      1.04970633	      0.00207896	    -11.86964785	     -6.23337438	    -11.01959630	     -0.48122208	      6.96736240	     -0.41035922	     60.03947396	    -51.16422131	     69.94258217	     65.09561693	      2.19057264	     34.65981346	     -4.51837894	     -7.71928990	     -4.39615943	      7.51613223	     -4.26092556	     -4.42239478	     -1.52950599	     55.91384426	    -55.85681477	    -47.88843470	     65.01907052	      0.31465651	    -16.29944392	    -24.99999983
      2.26000000	      1.57046849	     -0.93184633	     -9.35250403	     -0.06829312	      1.04940437	      0.00218114	    -11.87002502	     -6.19437595	    -10.97292262	     -0.48338866	      7.07813359	     -0.45100732	     60.02327721	    -51.10758388	     69.92965473	     65.50885451	      2.22988376	     34.76104933	     -4.55084017	     -7.66812402	     -4.33896315	      7.41837702	     -4.29570206	     -4.37119289	     -1.48979977	     55.94057970	    -55.76638287	    -47.95515379	     65.14438186	      0.40693006	    -16.32314016	    -24.99999983
      2.27000000	      1.55521998	     -0.92177255	     -9.31261127	     -0.06802962	      1.04972356	      0.00203048	    -11.87020047	     -6.19076276	    -10.95950657	     -0.49092881	      7.10952147	     -0.45585934	     60.04384399	    -51.08579156	     69.91290648	     65.53414665	      2.23036200	     34.76820205	     -4.55713434	     -7.66700293	     -4.34155404	      7.40776810	     -4.28543777	     -4.35019990	     -1.48263411	     55.95257450	    -55.73940107	    -47.94965628	     65.16388117	      0.41313985	    -16.32783200	    -24.99999983
      2.28000000	      1.54134280	     -0.95842974	     -9.43509394	     -0.06787353	      1.04912460	      0.00218497	    -11.90087142	     -6.07161710	    -10.94450445	     -0.44872739	      7.29729250	     -0.53442746	     60.10339799	    -51.06567707	     69.88490749	     66.18987874	      2.27138661	     34.95782729	     -4.61691549	     -7.62309539	     -4.22695054	      7.32447126	     -4.35994473	     -4.26700193	     -1.42741412	     55.98776703	    -55.65473826	    -48.05378955	     65.44158577	      0.55528923	    -16.37667662	    -24.99999983
      2.29000000	      1.52188600	     -0.93506774	     -9.37519474	     -0.06761161	      1.04962140	      0.00199220	    -11.89917706	     -6.07006107	    -10.92118953	     -0.46130630	      7.34011513	     -0.54781754	     60.13266907	    -51.02997264	     69.86379188	     66.22857608	      2.27118783	     34.96940256	     -4.62588288	     -7.62242311	     -4.23205231	      7.30931787	     -4.34699597	     -4.23804487	     -1.41984047	     56.00506977	    -55.61937119	    -48.04858964	     65.46617325	      0.56405922	    -16.38297866	    -24.99999983
      2.30000000	      1.77885296	     -0.77662181	     -9.29133273	     -0.06756500	      1.04873413	      0.00214266	    -11.98660418	     -5.72624988	    -10.94118602	     -0.29404282	      7.74715053	     -0.74197547	     60.66615280	    -51.32972145	     70.33863069	     67.24568731	      2.62861023	     35.33002244	     -5.06334026	     -7.53213462	     -4.03257311	      7.13966682	     -4.47279080	     -4.08802299	     -1.31499416	     55.99512373	    -55.31282248	    -48.69368820	     65.66288423	      1.58317835	    -16.75986266	    -24.99999983
      2.31000000	      1.68606061	     -0.82269297	     -9.43342125	     -0.06733128	      1.04857250	      0.00211167	    -12.00881197	     -5.73265594	    -10.90172844	     -0.35109010	      7.89865535	     -0.77332081	     60.69534842	    -51.18258825	     70.36380771	     67.76313398	      2.67372652	     35.45169633	     -5.17210575	     -7.53846368	     -3.97340358	      7.12218965	     -4.48369107	     -3.97346577	     -1.27772146	     56.07951335	    -55.26960925	    -48.67272666	     66.00985854	      1.74085679	    -16.91004994	    -24.99999983
      2.32000000	      1.64862339	     -0.84176508	     -9.49140646	     -0.06709758	      1.04845001	      0.00213506	    -12.04100714	     -5.67720285	    -10.88467950	     -0.35864725	      8.06585951	     -0.82635020	     60.80091207	    -51.10574743	     70.37794580	     68.36343377	      2.69098453	     35.58784387	     -5.31882573	     -7.52876862	     -3.91563083	      7.08007581	     -4.49780385	     -3.86975238	     -1.23976309	     56.15714296	    -55.21981366	    -48.73912232	     66.31677564	      1.91220801	    -17.05190632	    -24.99999983
      2.33000000	      1.63559950	     -0.84919795	     -9.53067297	     -0.06688754	      1.04829624	      0.00215454	    -12.07199896	     -5.59709290	    -10.86259689	     -0.34952801	      8.24955153	     -0.89107825	     60.94605099	    -51.03709272	     70.39085307	     69.04081486	      2.68453878	     35.72897026	     -5.48902271	     -7.50993669	     -3.85480588	      7.01897685	     -4.51293973	     -3.76074978	     -1.19565534	     56.24209391	    -55.16248359	    -48.84421242	     66.66690096	      2.08070668	    -17.20205975	    -24.99999983
      2.34000000	      1.81998598	     -0.79205177	     -9.37487180	     -0.06662422	      1.04846391	      0.00219761	    -12.17454340	     -5.57175705	    -10.97451206	     -0.37807473	      8.39065739	     -0.91667195	     61.81645414	    -51.09379965	     71.10142967	     70.03621167	      2.67421018	     35.56159574	     -6.55340009	     -7.49699697	     -4.00298578	      6.93356168	     -4.34831255	     -3.68058225	     -1.19734245	     56.54097790	    -55.22740319	    -49.57100373	     66.90050035	      3.09544898	    -18.14759402	    -24.99999983
      2.35000000	      1.69754645	     -0.88567876	     -9.43868036	     -0.06629849	      1.04840925	      0.00230103	    -12.23701107	     -5.56587343	    -10.97518673	     -0.44567445	      8.60290099	     -0.96064310	     61.84115096	    -50.90429893	     70.98324584	     70.74847893	      2.65998371	     35.70700097	     -6.61467275	     -7.51652535	     -3.90429821	      6.94291285	     -4.38929993	     -3.55086679	     -1.15313370	     56.65881045	    -55.21494835	    -49.49333685	     67.31416297	      3.11958021	    -18.25213269	    -24.99999983
      2.36000000	      1.64608839	     -0.88885513	     -9.52390082	     -0.06607064	      1.04817369	      0.00225968	    -12.28710526	     -5.50145111	    -10.96252005	     -0.46294670	      8.82283576	     -1.02497721	     61.92855752	    -50.75402657	     70.86597551	     71.56991662	      2.62200722	     35.84627232	     -6.70185682	     -7.53374083	     -3.80977454	      6.93087112	     -4.41040884	     -3.37813072	     -1.09891136	     56.75672689	    -55.12424618	    -49.45980880	     67.95512984	      3.15236474	    -18.37437786	    -24.99999983
      2.37000000	      1.61439496	     -0.88691408	     -9.56841839	     -0.06586541	      1.04806426	      0.00239483	    -12.33771620	     -5.42625650	    -10.94965779	     -0.47425810	      9.05332167	     -1.09453008	     62.05304856	    -50.61491363	     70.72495777	     72.43151244	      2.55529049	     35.94100212	     -6.81032479	     -7.53964032	     -3.72033307	      6.89387449	     -4.42482214	     -3.19887700	     -1.04055740	     56.87896289	    -55.03509256	    -49.46085370	     68.57826177	      3.18252052	    -18.49414140	    -24.99999983
      2.38000000	      1.58367529	     -0.90435920	     -9.57595968	     -0.06559797	      1.04801690	      0.00228179	    -12.40075740	     -5.36402969	    -10.94065552	     -0.50309252	      9.30300106	     -1.16945166	     62.16514527	    -50.47057094	     70.54426231	     73.34959441	      2.47006091	     36.01835813	     -6.91679528	     -7.54036962	     -3.62648784	      6.85546221	     -4.44906988	     -3.03455778	     -0.98135861	     56.98949243	    -54.96441473	    -49.47562078	     69.20633911	      3.19926737	    -18.59674194	    -24.99999983
      2.39000000	      1.56866059	     -0.86619803	     -9.60383494	     -0.06537969	      1.04789420	      0.00223604	    -12.45286452	     -5.28154178	    -10.91923642	     -0.51332863	      9.55184707	     -1.24867078	     62.28999988	    -50.32754682	     70.35485575	     74.32786818	      2.36115154	     36.04709009	     -7.02594841	     -7.55051630	     -3.53673609	      6.81408458	     -4.45156006	     -2.82211498	     -0.91615218	     57.11685195	    -54.85119988	    -49.47138512	     69.96768708	      3.19903286	    -18.70358420	    -24.99999983
